<?xml version="1.0" encoding="UTF-8"?>
<svg width="75px" height="75px" viewBox="0 0 75 75" version="1.1" xmlns="http://www.w3.org/2000/svg" xmlns:xlink="http://www.w3.org/1999/xlink">
    <!-- Generator: Sketch 62 (91390) - https://sketch.com -->
    <title>003-baseball</title>
    <desc>Created with Sketch.</desc>
    <g id="Page-1" stroke="none" stroke-width="1" fill="none" fill-rule="evenodd">
        <g id="LAS-Homepage-Copy-4" transform="translate(-462.000000, -391.000000)" fill-rule="nonzero">
            <g id="Portfolio-Row" transform="translate(89.000000, 366.000000)">
                <g id="Choose-Sport-Copy" transform="translate(280.000000, 0.000000)">
                    <g id="003-baseball" transform="translate(93.000000, 25.000000)">
                        <g>
                            <g id="Group" transform="translate(13.155242, 31.451613)" fill="#F6754B">
                                <path d="M60.6350806,24.1935484 C60.6350806,19.4091797 58.7685862,15.0701707 55.7432114,11.8280226 C50.8170835,13.7783912 47.328629,18.5733918 47.328629,24.1935484 C47.328629,29.813705 50.8170835,34.6087055 55.7432114,36.5590742 C58.7685862,33.3169261 60.6350806,28.9779171 60.6350806,24.1935484 Z" id="Path"></path>
                                <path d="M29.2366273,11.8280226 C26.2112525,15.0701707 24.3447581,19.4091797 24.3447581,24.1935484 C24.3447581,28.9779171 26.2112525,33.3169261 29.2366273,36.5590742 C34.1627552,34.6087055 37.6512097,29.813705 37.6512097,24.1935484 C37.6512097,18.5733918 34.1627552,13.7783912 29.2366273,11.8280226 L29.2366273,11.8280226 Z" id="Path"></path>
                                <path d="M13.4275374,21.7741935 C10.1889333,21.7741935 6.84046588,20.28277 4.24214032,17.6832629 C2.01297883,15.4535109 0.590072177,12.6679452 0.235674496,9.83689839 C-0.131717843,6.89421623 0.688122127,4.2498189 2.54516598,2.3939563 C4.08738659,0.850554435 6.2563004,0 8.64907545,0 C11.8876796,0 15.2349656,1.49024229 17.8344726,4.09093065 C20.0636341,6.32068261 21.4877221,9.10742979 21.8409384,11.9372952 C22.2083307,14.8799773 21.3884908,17.5243746 19.5314469,19.3802372 C17.9892263,20.9236391 15.8203125,21.7741935 13.4275374,21.7741935 Z" id="Path"></path>
                            </g>
                            <path d="M8.46537928,45.5442367 L6.19841552,46.3912471 C6.52505202,47.2642468 6.91311744,48.1272051 7.35257056,48.9547237 L9.49017928,47.8194699 C9.09916043,47.085276 8.75421336,46.3209584 8.46537928,45.5442367 Z" id="Path" fill="#273238"></path>
                            <path d="M7.3779691,40.9949518 L4.97397142,41.264294 C5.07084012,42.1248898 5.22086855,42.9884388 5.41933125,43.8277706 L7.77312248,43.2701849 C7.59651426,42.5235871 7.46361517,41.7580881 7.3779691,40.9949518 Z" id="Path" fill="#273238"></path>
                            <path d="M26.4870921,58.0645161 C20.3506963,58.0645161 14.5267609,55.0863944 10.9101327,50.0976562 L8.95149481,51.5176096 C13.0211614,57.1318595 19.5775185,60.483871 26.4870921,60.483871 C29.1787424,60.483871 31.8095546,59.9930301 34.3086488,59.0249338 L33.4344679,56.7691926 C31.2147572,57.6291977 28.8775043,58.0645161 26.4870921,58.0645161 Z" id="Path" fill="#273238"></path>
                            <path d="M64.9162046,38.6624244 C65.1737336,37.969577 65.3225806,37.2377457 65.3225806,36.4887853 C65.3225806,33.2614037 62.8536101,30.6300009 59.7106934,30.3063177 L61.0727617,28.9436586 C62.2534967,27.7635144 62.9032258,26.1953046 62.9032258,24.5260916 L62.9032258,24.3908298 C62.9032258,21.1634483 60.4342553,18.5320455 57.2913386,18.2077715 L58.6534069,16.8457031 C59.8341419,15.6667402 60.483871,14.0985304 60.483871,12.4293174 L60.483871,12.2940556 C60.483871,8.84990081 57.6823573,6.0483871 54.2370212,6.0483871 L54.1017594,6.0483871 C52.4337277,6.0483871 50.8643365,6.69811618 49.6853737,7.87885116 L48.3227146,9.24091951 C48.0002126,6.09800277 45.3676285,3.62903226 42.140247,3.62903226 L42.0049852,3.62903226 C40.3369535,3.62903226 38.7675623,4.27876134 37.5885995,5.45949632 L36.0546481,6.99285696 C33.1509497,2.64675998 28.2821162,0 22.983871,0 C17.0772429,0 11.6614557,3.34728614 8.98575318,8.57642389 C6.5516318,9.03123417 4.56523276,10.9296245 4.06553211,13.4251748 L0.513876714,31.1793174 C0.173064163,32.8851516 2.14881876e-14,34.6317414 2.14881876e-14,36.373606 L2.14881876e-14,38.8354886 C2.14881876e-14,53.4413983 11.8811823,65.3225806 26.4870921,65.3225806 C30.3494362,65.3225806 34.1916977,64.460213 37.6884215,62.829393 C40.5484107,69.9521958 47.5123252,75 55.6451613,75 C66.3166662,75 75,66.3166662 75,55.6451613 C75,48.3303931 70.9197014,41.9518255 64.9162046,38.6624244 L64.9162046,38.6624244 Z M58.9416504,32.6612903 L59.0769121,32.6612903 C61.1867598,32.6612903 62.9032258,34.3777564 62.9032258,36.4887853 C62.9032258,36.8857107 62.8364809,37.2749575 62.7183484,37.6476656 C60.524036,36.7811634 58.1430742,36.2903226 55.6451613,36.2903226 C54.9605831,36.2903226 54.2854554,36.3293062 53.6191878,36.3978233 L56.2340521,33.7823682 C56.9576141,33.059397 57.9180318,32.6612903 58.9416504,32.6612903 Z M22.983871,2.41935484 C27.6300245,2.41935484 31.8703928,4.83989093 34.287385,8.76071069 L32.5378418,10.5096632 C30.6553994,7.05723916 27.0169166,4.83870968 22.983871,4.83870968 C19.321171,4.83870968 15.9484863,6.69693478 13.9473207,9.67741935 L13.7783912,9.67741935 C13.1540607,9.21552097 12.4464466,8.88415917 11.6974861,8.68451522 C14.1085718,4.83280313 18.3702038,2.41935484 22.983871,2.41935484 Z M19.3548387,14.516129 L16.268035,14.516129 C16.252087,13.6779785 16.0672095,12.8551852 15.7246252,12.0967742 L19.3536575,12.0967742 L19.3536575,14.516129 L19.3548387,14.516129 Z M16.0376764,16.9354839 L19.3548387,16.9354839 L19.3548387,19.3548387 L15.7352571,19.3548387 L16.0376764,16.9354839 Z M19.3548387,9.67741935 L17.0878748,9.67741935 C17.7559145,9.02769027 18.5155069,8.48368987 19.3548387,8.08440181 L19.3548387,9.67741935 Z M15.4328377,21.7741935 L19.3548387,21.7741935 L19.3548387,23.6926663 L15.2249244,27.8225806 L14.6767893,27.8225806 L15.4328377,21.7741935 Z M21.7741935,7.34666401 C22.171119,7.28936961 22.5751323,7.25806452 22.983871,7.25806452 C23.393791,7.25806452 23.796623,7.29704819 24.1935484,7.35375181 L24.1935484,18.8539567 L21.7741935,21.2733115 L21.7741935,7.34666401 Z M26.6129032,8.08794572 C27.4622764,8.49077782 28.2437232,9.02060232 28.9135349,9.67741935 L26.6129032,9.67741935 L26.6129032,8.08794572 Z M26.6129032,12.0967742 L30.6146437,12.0967742 C30.6506741,12.1729697 30.680798,12.2538904 30.7162378,12.3312673 L26.6129032,16.4346018 L26.6129032,12.0967742 Z M26.4870921,62.9032258 C13.2154896,62.9032258 2.41935484,52.107091 2.41935484,38.8354886 L2.41935484,36.373606 C2.41935484,34.7918111 2.57647107,33.2035189 2.88656915,31.6536197 L6.43763392,13.897705 C6.7861249,12.1534778 8.33248019,10.8870968 10.1115566,10.8870968 C11.1859721,10.8870968 12.2090002,11.3489952 12.9207488,12.1534778 C13.6319069,12.9579605 13.9620874,14.0323762 13.8291882,15.0979319 L11.9361139,30.2419355 L16.2266885,30.2419355 L39.2985682,7.16946502 C40.0221302,6.44649375 40.9825479,6.0483871 42.0061665,6.0483871 L42.1414282,6.0483871 C44.2512759,6.0483871 45.9677419,7.76485313 45.9677419,9.87588206 L45.9677419,10.0111438 C45.9677419,11.0335811 45.5696353,11.9951802 44.846664,12.7175608 L36.6447203,20.9189138 L36.2903226,21.2733115 L36.2903226,18.1451613 L33.8709677,18.1451613 L33.8709677,22.983871 L29.0322581,22.983871 L29.0322581,25.4032258 L32.1604083,25.4032258 L29.3866557,28.1769783 L31.0972152,29.8875378 L33.8709677,27.1137853 L33.8709677,30.2419355 L36.2903226,30.2419355 L36.2903226,25.4032258 L41.1290323,25.4032258 L41.1290323,22.983871 L38.0008821,22.983871 L38.3552797,22.6294733 L46.5566327,14.4275295 L51.3953424,9.58881986 C52.1189044,8.86584859 53.0793221,8.46774194 54.1029407,8.46774194 L54.2382024,8.46774194 C56.3480501,8.46774194 58.0645161,10.184208 58.0645161,12.2952369 L58.0645161,12.4304986 C58.0645161,13.452936 57.6664095,14.414535 56.9434382,15.1369157 L52.1047285,19.9756254 L45.9677419,26.1120212 L45.9677419,22.983871 L43.5483871,22.983871 L43.5483871,27.8225806 L38.7096774,27.8225806 L38.7096774,30.2419355 L41.8378276,30.2419355 L36.6447203,35.4350428 L38.3552797,37.1456023 L43.5483871,31.952495 L43.5483871,35.0806452 L45.9677419,35.0806452 L45.9677419,30.2419355 L50.8064516,30.2419355 L50.8064516,27.8225806 L47.6783014,27.8225806 L53.8146972,21.6855941 C54.5382593,20.9626228 55.4986769,20.5645161 56.5222955,20.5645161 L56.6575573,20.5645161 C58.7674049,20.5645161 60.483871,22.2809822 60.483871,24.3920111 L60.483871,24.5272728 C60.483871,25.5497102 60.0857643,26.5113092 59.362793,27.2336899 L54.5240834,32.0723995 L49.166181,37.4297111 C41.6759861,40.103051 36.2903226,47.2477083 36.2903226,55.6451613 C36.2903226,57.3267783 36.5283597,58.9499197 36.9323731,60.5057255 C33.6837277,62.070982 30.0954511,62.9032258 26.4870921,62.9032258 Z M55.6451613,72.5806452 C46.3061917,72.5806452 38.7096774,64.9841309 38.7096774,55.6451613 C38.7096774,46.3061917 46.3061917,38.7096774 55.6451613,38.7096774 C64.9841309,38.7096774 72.5806452,46.3061917 72.5806452,55.6451613 C72.5806452,64.9841309 64.9841309,72.5806452 55.6451613,72.5806452 Z" id="Shape" fill="#273238"></path>
                            <polygon id="Path" fill="#273238" points="45.9677419 54.4354839 53.2258065 54.4354839 53.2258065 56.8548387 45.9677419 56.8548387"></polygon>
                            <polygon id="Path" fill="#273238" points="58.0645161 54.4354839 65.3225806 54.4354839 65.3225806 56.8548387 58.0645161 56.8548387"></polygon>
                            <polygon id="Path" fill="#273238" points="61.8140436 65.9096994 66.9463127 60.7774303 68.6574629 62.4879898 63.5251937 67.6202589"></polygon>
                            <polygon id="Path" fill="#273238" points="61.8146342 45.3812138 63.5251937 43.6700637 68.6574629 48.8023328 66.9469034 50.5128922"></polygon>
                            <polygon id="Path" fill="#273238" points="42.3989574 62.4873992 44.1095168 60.7768397 49.2417859 65.9091088 47.5312264 67.6196682"></polygon>
                            <polygon id="Path" fill="#273238" points="42.3989574 48.8017421 47.5312264 43.6700637 49.2423765 45.3806232 44.1101075 50.5128922"></polygon>
                            <polygon id="Path" fill="#273238" points="18.4989683 38.3552797 20.2095278 36.6441296 21.9200873 38.3552797 20.2095278 40.0658392"></polygon>
                            <polygon id="Path" fill="#273238" points="21.9212685 41.7769893 23.631828 40.0658392 25.3429781 41.7769893 23.631828 43.4875488"></polygon>
                            <polygon id="Path" fill="#273238" points="25.3417969 45.1981083 27.052947 43.4875488 28.7635065 45.1981083 27.052947 46.9092584"></polygon>
                        </g>
                    </g>
                </g>
            </g>
        </g>
    </g>
</svg>