<?xml version="1.0" encoding="UTF-8"?>
<svg width="75px" height="75px" viewBox="0 0 75 75" version="1.1" xmlns="http://www.w3.org/2000/svg" xmlns:xlink="http://www.w3.org/1999/xlink">
    <!-- Generator: Sketch 62 (91390) - https://sketch.com -->
    <title>003-baseball</title>
    <desc>Created with Sketch.</desc>
    <g id="Page-1" stroke="none" stroke-width="1" fill="none" fill-rule="evenodd">
        <g id="LAS-Homepage-Copy-4" transform="translate(-1022.000000, -391.000000)" fill-rule="nonzero">
            <g id="Portfolio-Row" transform="translate(89.000000, 366.000000)">
                <g id="Choose-Sport-Copy-3" transform="translate(840.000000, 0.000000)">
                    <g id="003-baseball" transform="translate(93.000000, 25.000000)">
                        <g id="004-basketball">
                            <path d="M73.7785093,22.4150627 L73.7661054,22.4150627 C69.2180019,23.9637806 63.1329936,22.2461332 58.548269,17.6614084 C57.4838946,16.5970341 56.5766365,15.4594175 55.8388987,14.2739574 C53.0686902,9.90718715 52.4638515,4.95979551 54.2659636,1.33076326 L54.2659636,1.31835938 C53.5282258,1.24570781 52.778084,1.20967742 52.016129,1.20967742 C46.0037723,1.20967742 40.5602239,3.6532494 36.6169591,7.58470101 C32.6855075,11.5279659 30.2419355,16.9715143 30.2419355,22.983871 C30.2419355,23.1776084 30.2419355,23.3589419 30.2537487,23.5526793 L30.2661526,23.5526793 C34.1852004,22.221916 39.2418646,23.3105075 43.4881394,26.564469 C44.1774429,27.0848428 44.8425293,27.6654644 45.4839891,28.3063335 C50.455598,33.2779423 52.0645633,40.0162235 49.7662945,44.6369787 L49.7662945,44.6493826 C50.5040323,44.7220341 51.2541741,44.7580645 52.016129,44.7580645 C58.0284857,44.7580645 63.4720341,42.3144925 67.415299,38.3830409 C71.3467506,34.4397761 73.7903226,28.9962277 73.7903226,22.983871 C73.7903226,22.7901336 73.7903226,22.6088001 73.7785093,22.4150627 Z" id="Path" fill="#F6754B"></path>
                            <path d="M34.8071682,36.2903226 L3.62903226,36.2903226 C1.62845731,36.2903226 0,37.9187799 0,39.9193548 L0,42.3387097 C0,44.3392846 1.62845731,45.9677419 3.62903226,45.9677419 L52.1856493,45.9677419 L50.3138389,44.6724184 C44.0055602,44.1821682 38.4627804,41.0114903 34.8071682,36.2903226 L34.8071682,36.2903226 Z" id="Path" fill="#F6754B"></path>
                            <path d="M75,22.983871 C75,10.3100193 64.6899807,0 52.016129,0 C39.3422773,0 29.0322581,10.3100193 29.0322581,22.983871 C29.0322581,35.6577227 39.3422773,45.9677419 52.016129,45.9677419 C54.4366651,45.9677419 56.7680112,45.5867645 58.9611423,44.8897824 C57.7680033,46.6694493 56.6770492,48.5010947 55.7396673,50.4000756 L51.3073337,45.9677419 L47.8862147,45.9677419 L52.7249244,50.8064516 L47.1774194,56.3539567 L41.6299143,50.8064516 L46.468624,45.9677419 L43.047505,45.9677419 L39.9193548,49.0958921 L36.7912046,45.9677419 L33.3700857,45.9677419 L38.2087954,50.8064516 L32.6612903,56.3539567 L27.1137853,50.8064516 L31.952495,45.9677419 L28.531376,45.9677419 L25.4032258,49.0958921 L22.2750756,45.9677419 L18.8539567,45.9677419 L23.6926663,50.8064516 L18.1451613,56.3539567 L12.5976562,50.8064516 L17.4363659,45.9677419 L14.015247,45.9677419 L9.58291331,50.3988944 C8.83277147,48.8808909 7.97040393,47.4107312 7.05723916,45.9677419 L4.18071139,45.9677419 C9.35078286,53.5654376 12.0967742,62.415929 12.0967742,71.6202275 L12.0967742,75 L14.516129,75 L14.516129,71.6202275 C14.516129,71.2935909 14.5043158,70.969317 14.4978184,70.6426805 L18.1451613,74.2912046 L25.4032258,67.0331401 L32.6612903,74.2912046 L39.9193548,67.0331401 L47.1774194,74.2912046 L50.8247622,70.6438618 C50.8182649,70.969317 50.8064516,71.2935909 50.8064516,71.6202275 L50.8064516,75 L53.2258065,75 L53.2258065,71.6202275 C53.2258065,62.2097876 56.0781171,53.1602428 61.4950857,45.4207881 L62.9528415,43.1939894 C70.1223067,39.2985682 75,31.7008727 75,22.983871 Z M10.6561476,52.7479603 L10.8870968,52.5170111 L16.4346018,58.0645161 L13.361974,61.137144 C12.7211047,58.2617976 11.8150281,55.4567398 10.6561476,52.7479603 Z M18.1451613,70.8700857 L14.2887239,67.0136483 C14.1930364,66.0059775 14.069588,65.0030321 13.9112903,64.0077653 L18.1451613,59.7750756 L23.6926663,65.3225806 L18.1451613,70.8700857 Z M19.8557208,58.0645161 L25.4032258,52.5170111 L30.9507308,58.0645161 L25.4032258,63.6120212 L19.8557208,58.0645161 Z M32.6612903,70.8700857 L27.1137853,65.3225806 L32.6612903,59.7750756 L38.2087954,65.3225806 L32.6612903,70.8700857 Z M34.3718498,58.0645161 L39.9193548,52.5170111 L45.4668599,58.0645161 L39.9193548,63.6120212 L34.3718498,58.0645161 Z M51.0338568,67.0136483 L47.1774194,70.8700857 L41.6299143,65.3225806 L47.1774194,59.7750756 L51.4112903,64.0077653 C51.2529927,65.0030321 51.1295442,66.0059775 51.0338568,67.0136483 Z M51.9606067,61.137144 L48.8879788,58.0645161 L54.4354839,52.5170111 L54.6664331,52.7479603 C53.5075526,55.4567398 52.6014759,58.2617976 51.9606067,61.137144 Z M50.8223995,20.079582 C52.3244549,18.637774 53.9032967,17.2739336 55.5565618,16.0004646 C56.1921151,16.8752362 56.8997291,17.7216561 57.6941705,18.5166882 C61.3125709,22.1344978 66.0083401,24.1728752 70.2894641,24.1728752 C71.0537819,24.1728752 71.8015609,24.1002236 72.5310295,23.9673245 C72.3000803,28.8143035 70.3934208,33.218876 67.3656833,36.6216844 L50.8223995,20.079582 Z M72.5056309,21.5107579 C68.3904832,22.4623157 63.2469916,20.6489809 59.4035487,16.8061287 C58.6947534,16.0973333 58.0645161,15.344829 57.4998425,14.5681074 C60.4986375,12.4488092 63.7100713,10.6041693 67.1081543,9.06313004 C70.1796009,12.3897429 72.1642279,16.721664 72.5056309,21.5107579 Z M55.0066548,2.66270791 C58.8689988,3.2285628 62.3881678,4.85583886 65.2440225,7.26160857 C62.063894,8.76425474 59.0444258,10.5232485 56.2086535,12.5179167 C54.415992,9.171812 53.9251512,5.57290358 55.0066548,2.66270791 Z M52.5412282,2.44593463 C51.4780352,5.96746633 52.1324896,10.1428616 54.2470624,13.9514554 C52.4490848,15.3265184 50.7385254,16.8049474 49.1106587,18.3678411 L38.3771342,7.63549808 C42.0108918,4.40220983 46.780494,2.41935484 52.016129,2.41935484 C52.1939185,2.41935484 52.3646202,2.44120932 52.5412282,2.44593463 Z M44.6287093,29.1616133 C48.8673056,33.4002095 50.5949943,39.080023 49.0267846,43.305034 C44.8401667,42.6907447 41.0676033,40.8183435 38.0953881,38.0747149 C39.6630073,34.6175655 41.5478121,31.3535628 43.7131821,28.3098774 C44.0238706,28.5833543 44.3310153,28.8651005 44.6287093,29.1616133 L44.6287093,29.1616133 Z M36.2926852,36.2105831 C33.5744549,32.9855642 31.8449943,28.9147161 31.5254457,24.4569841 C34.6913983,23.7239714 38.4627804,24.6365456 41.7870305,26.842671 C39.6943123,29.7764932 37.8543977,32.9058248 36.2926852,36.2105831 L36.2926852,36.2105831 Z M31.5012286,22.0027801 C31.7309964,17.1558011 33.6388373,12.7500472 36.6665747,9.34605756 L47.4000992,20.0784006 C45.9275769,21.6111706 44.5353847,23.2195455 43.2288386,24.9023438 C39.5047095,22.4067934 35.2224042,21.3264711 31.5012286,22.0027801 Z M51.4910298,43.5218073 C53.0043079,38.5076707 51.0409447,32.1545017 46.3392688,27.4510538 C45.9571101,27.0700763 45.5601847,26.7121346 45.1561712,26.3660062 C46.3959724,24.7706259 47.7155132,23.2437626 49.1118401,21.7889601 L65.6551238,38.3322439 C62.0213663,41.5655321 57.2517641,43.5483871 52.016129,43.5483871 C51.8383396,43.5483871 51.6664567,43.5265326 51.4910298,43.5218073 L51.4910298,43.5218073 Z" id="Shape" fill="#273238"></path>
                        </g>
                    </g>
                </g>
            </g>
        </g>
    </g>
</svg>