<?xml version="1.0" encoding="UTF-8"?>
<svg width="75px" height="75px" viewBox="0 0 75 75" version="1.1" xmlns="http://www.w3.org/2000/svg" xmlns:xlink="http://www.w3.org/1999/xlink">
    <!-- Generator: Sketch 62 (91390) - https://sketch.com -->
    <title>003-baseball</title>
    <desc>Created with Sketch.</desc>
    <g id="Page-1" stroke="none" stroke-width="1" fill="none" fill-rule="evenodd">
        <g id="LAS-Homepage-Copy-4" transform="translate(-462.000000, -751.000000)" fill-rule="nonzero">
            <g id="Portfolio-Row-Copy-2" transform="translate(89.000000, 726.000000)">
                <g id="Choose-Sport-Copy" transform="translate(280.000000, 0.000000)">
                    <g id="003-baseball" transform="translate(93.000000, 25.000000)">
                        <g id="007-boxing">
                            <polygon id="Path" fill="#F6754B" points="1.696875 51.6 16.0974609 37.1994141 20.8974609 41.9994141 6.4974609 56.4"></polygon>
                            <path d="M26.8365234,53.4433593 C25.6488282,52.2539062 24.0697266,51.6 22.3869141,51.6 C18.9193359,51.6 16.096875,54.4224609 16.096875,57.8917968 C16.096875,59.5705078 16.7507812,61.1507812 17.9390625,62.3402343 L26.0484375,70.4484375 L34.9453125,61.5515625 L26.8365234,53.4433593 Z" id="Path" fill="#F6754B"></path>
                            <polygon id="Path" fill="#273238" points="24.6052734 36.5695313 26.0900391 34.1695313 28.1320313 35.4333984 26.6466797 37.8328125"></polygon>
                            <path d="M39.6023438,20.4 C40.3798829,20.4 41.1673829,20.6472657 41.8166016,21.09375 L43.1783203,19.1185547 C42.1318359,18.3972657 40.8621093,18 39.6023438,18 C37.4109375,18 35.4134766,19.1121093 34.2597657,20.9748047 L27.5794922,31.7677734 L29.6208984,33.0310547 L36.3011718,22.2386718 C37.0142579,21.0878907 38.2476563,20.4 39.6023438,20.4 Z" id="Path" fill="#273238"></path>
                            <path d="M53.203125,4.8 L52.9886718,4.8 C50.9748047,4.8 49.0365234,5.5365234 47.5294922,6.87480465 L46.8228516,7.50234375 L48.4166016,9.2964843 L49.1232422,8.66894535 C50.1902343,7.72207035 51.5642578,7.2 52.9886718,7.2 L53.203125,7.2 C54.7558593,7.2 56.2166016,7.8046875 57.3158204,8.9027343 L64.8609375,16.4484375 L66.5578125,14.7515625 L59.0121093,7.2046875 C57.459375,5.6542968 55.396875,4.8 53.203125,4.8 L53.203125,4.8 Z" id="Path" fill="#273238"></path>
                            <path d="M68.8681641,17.3666016 L66.8291016,18.6345703 C67.2082032,19.2445312 67.4677734,19.9130859 67.5996093,20.6197266 L69.9597657,20.1826171 C69.7716796,19.1783203 69.4054687,18.2314453 68.8681641,17.3666016 L68.8681641,17.3666016 Z" id="Path" fill="#273238"></path>
                            <path d="M71.0841796,12.4921875 L62.4058593,3.8121093 C59.9472657,1.3535157 56.6783204,0 53.203125,0 L52.9886718,0 C49.7988282,0 46.7267578,1.1677734 44.3425782,3.2865234 L40.1630859,7.003125 C38.2113282,8.73574215 36.9767578,11.0589843 36.6146484,13.6142579 C33.9708984,14.3472657 31.6716796,16.0365234 30.1775391,18.45 L18.2736328,37.6798829 L16.096875,35.503125 L-1.27897692e-14,51.6 L23.296875,74.896875 L39.39375,58.8 L37.1232421,56.5294922 L69.6925782,32.1035157 C72.9515625,29.6589843 74.896875,25.7677734 74.896875,21.69375 C74.896875,18.2173829 73.5433593,14.9496093 71.0841796,12.4921875 Z M23.296875,71.503125 L3.39375,51.6 L16.096875,38.896875 L36,58.8 L23.296875,71.503125 Z M68.2523438,30.1845704 L35.409375,54.8162109 L20.0173829,39.4236329 L32.2189453,19.7138672 C33.8138672,17.1369141 36.5724609,15.6 39.6023438,15.6 C41.9232422,15.6 44.1035157,16.5035157 45.7429688,18.1441407 L49.2597657,21.6609375 C50.3162109,22.7162109 50.896875,24.1189454 50.896875,25.6113282 C50.896875,28.6933593 48.3902343,31.2 45.3082032,31.2 C43.8169921,31.2 42.4130859,30.6193359 41.3566407,29.5634766 L37.3453125,25.5515625 L37.3236329,25.5732422 C37.3189454,25.5685547 37.3154296,25.5638672 37.3101563,25.5585938 L35.5992188,27.2414063 C38.3941407,30.0849609 38.3941407,34.7150391 35.5992188,37.5585938 L33.2414063,39.9585937 L34.9523438,41.6402343 L37.3101563,39.2402343 C39.3597657,37.1554688 40.2708984,34.3488282 40.0546875,31.6177734 C41.5113282,32.8957032 43.3535157,33.6 45.3082032,33.6 C46.9166016,33.6 48.4113282,33.1189454 49.6658204,32.2980468 C51.1810546,33.1535157 52.8457032,33.6011718 54.5121093,33.6011718 C57.1007812,33.6011718 59.6736328,32.5886718 61.6042968,30.6251953 L63.7523437,28.4425782 L62.0414062,26.7597657 L59.8933593,28.9429688 C57.6767579,31.1976563 54.3527343,31.7929688 51.5507812,30.5830078 C52.640625,29.2166016 53.296875,27.4910157 53.296875,25.6113282 C53.296875,23.4767578 52.4666016,21.4705079 50.9566407,19.9634766 L47.4398437,16.4460938 C45.3480468,14.353125 42.5642579,13.2 39.6023437,13.2 C39.4417968,13.2 39.2853516,13.2240234 39.1259766,13.2298828 C39.5197266,11.5248047 40.4220703,9.98261715 41.75625,8.7972657 L45.9357422,5.0806641 C47.8810547,3.3515625 50.3865234,2.4 52.9886718,2.4 L53.203125,2.4 C56.0378907,2.4 58.7039063,3.50390625 60.7089843,5.5078125 L69.3878907,14.1878907 C71.3929688,16.1929687 72.496875,18.8578125 72.496875,21.69375 C72.496875,25.0166016 70.9101563,28.190625 68.2523438,30.1845704 Z" id="Shape" fill="#273238"></path>
                        </g>
                    </g>
                </g>
            </g>
        </g>
    </g>
</svg>