<?xml version="1.0" encoding="UTF-8"?>
<svg width="75px" height="75px" viewBox="0 0 75 75" version="1.1" xmlns="http://www.w3.org/2000/svg" xmlns:xlink="http://www.w3.org/1999/xlink">
    <!-- Generator: Sketch 62 (91390) - https://sketch.com -->
    <title>008-cricket</title>
    <desc>Created with Sketch.</desc>
    <g id="Page-1" stroke="none" stroke-width="1" fill="none" fill-rule="evenodd">
        <g id="Artboard" transform="translate(-742.000000, -727.000000)" fill-rule="nonzero">
            <g id="008-cricket" transform="translate(742.000000, 727.000000)">
                <path d="M73.7903226,17.5403226 C73.7903226,15.6035392 73.0206889,13.7464954 71.6515326,12.3773391 L62.6214797,3.34728614 C61.2535046,1.97931109 59.3964608,1.20967742 57.4596774,1.20967742 C56.8412534,1.20967742 56.2328708,1.29532349 55.6451613,1.44653317 L55.6451613,19.3548387 L73.5534668,19.3548387 C73.7046765,18.7671292 73.7903226,18.1587466 73.7903226,17.5403226 L73.7903226,17.5403226 Z" id="Path" fill="#F6754B"></path>
                <path d="M61.9487147,34.1166835 L72.5068123,23.5585858 C74.1157778,21.9508018 75,19.813193 75,17.5403226 C75,15.2674521 74.1157778,13.1298434 72.5068123,11.5220593 L63.4767594,2.4920064 C61.8701566,0.884222177 59.7325479,0 57.4596774,0 C55.186807,0 53.0491982,0.884222177 51.4414142,2.49318765 L14.516129,39.4184728 L14.516129,39.9193548 C14.516129,43.4905022 15.446423,46.9683248 17.1930129,50.0480406 L6.40278478,60.8382686 L8.11334425,62.5488281 L10.8870968,59.7750756 L15.2249244,64.1129032 L12.4511719,66.8866557 L14.1617314,68.5972152 L24.9519594,57.8069871 C28.0316752,59.553577 31.5094978,60.483871 35.0806452,60.483871 L35.5815272,60.483871 L43.7941028,52.2712954 C45.0687532,59.671119 51.5164282,65.3225806 59.2741935,65.3225806 C67.9451235,65.3225806 75,58.2677041 75,49.5967742 C75,41.8390089 69.3485383,35.3913339 61.9487147,34.1166835 Z M72.0655872,45.9677419 L46.4827999,45.9677419 C48.0675482,40.3912945 53.1956826,36.2903226 59.2741935,36.2903226 C65.3527045,36.2903226 70.4796576,40.3912945 72.0655872,45.9677419 Z M72.5806452,49.5967742 C72.5806452,50.0055129 72.5552466,50.4071636 72.5192162,50.8064516 L46.0291709,50.8064516 C45.9931405,50.4071636 45.9677419,50.0055129 45.9677419,49.5967742 C45.9677419,49.1880355 45.9931405,48.7863848 46.0291709,48.3870968 L72.5203975,48.3870968 C72.5552466,48.7863848 72.5806452,49.1880355 72.5806452,49.5967742 Z M53.1519736,4.20374713 C54.303766,3.05195474 55.8324014,2.41935484 57.4596774,2.41935484 C59.0869535,2.41935484 60.6155888,3.05195474 61.7673812,4.20374713 L70.7974341,13.2338001 C71.9480453,14.3844112 72.5806452,15.9130465 72.5806452,17.5403226 C72.5806452,19.1675986 71.9480453,20.696234 70.7962529,21.8480264 L58.7455503,33.8987289 C50.4969443,34.1745683 43.8496252,40.8218876 43.5737856,49.0704936 L36.0871346,56.5559634 C35.5330929,52.3935626 33.735706,48.6304498 31.0729981,45.6375614 L57.3557208,19.3548387 L55.6451613,19.3548387 L55.6451613,17.6442792 L29.3648013,43.9246393 C26.3719128,41.2619314 22.6076188,39.4645446 18.4463994,38.9105028 L53.1519736,4.20374713 Z M16.9898248,41.1934145 C19.5267216,41.3700227 21.9206779,42.0605075 24.0653746,43.1756788 L18.9750425,48.2660109 C17.835654,46.0728798 17.1617078,43.6706543 16.9898248,41.1934145 Z M12.5976562,58.0645161 L14.516129,56.1460433 L16.0802041,57.7101184 L17.7907636,55.999559 L16.2266885,54.4354839 L26.1882166,44.4739557 C27.8686524,45.6653226 29.3346774,47.1313476 30.5260443,48.8117834 L22.983871,56.3539567 L21.4197959,54.7898816 L19.7092364,56.500441 L21.2733115,58.0645161 L16.9354839,62.4023438 L12.5976562,58.0645161 Z M31.8243212,50.9346254 C32.9394925,53.0793221 33.6311586,55.4732784 33.8065855,58.0101752 C31.3293457,57.837111 28.9259388,57.164346 26.7339891,56.0249575 L31.8243212,50.9346254 Z M59.2741935,62.9032258 C53.196864,62.9032258 48.0687295,58.8022539 46.4827999,53.2258065 L72.0644059,53.2258065 C70.4796576,58.8022539 65.3515231,62.9032258 59.2741935,62.9032258 Z" id="Shape" fill="#000000"></path>
                <polygon id="Path" fill="#000000" points="24.5473554 36.6441296 26.9667103 34.2253654 28.6772698 35.9359249 26.2585055 38.3552797"></polygon>
                <polygon id="Path" fill="#000000" points="29.3860651 31.8060106 31.80542 29.3866557 33.5159794 31.0972152 31.0972152 33.5165701"></polygon>
                <polygon id="Path" fill="#000000" points="34.2253654 26.9673009 48.7414945 12.4505812 50.4520539 14.1611407 35.9359249 28.6778604"></polygon>
                <path d="M13.1599672,75 C12.1658817,75 11.1930602,74.597168 10.4901714,73.8942792 L1.10572077,64.5098286 C0.402831956,63.8069398 0,62.8341183 0,61.8400328 C0,59.7579464 1.69343029,58.0645161 3.77551663,58.0645161 L5.33959173,58.0645161 L16.9354839,69.6604083 L16.9354839,71.2244834 C16.9354839,73.3065697 15.2420536,75 13.1599672,75 Z" id="Path" fill="#F6754B"></path>
            </g>
        </g>
    </g>
</svg>