<?xml version="1.0" encoding="UTF-8"?>
<svg width="75px" height="75px" viewBox="0 0 75 75" version="1.1" xmlns="http://www.w3.org/2000/svg" xmlns:xlink="http://www.w3.org/1999/xlink">
    <!-- Generator: Sketch 62 (91390) - https://sketch.com -->
    <title>003-baseball</title>
    <desc>Created with Sketch.</desc>
    <g id="Page-1" stroke="none" stroke-width="1" fill="none" fill-rule="evenodd">
        <g id="LAS-Homepage-Copy-4" transform="translate(-1022.000000, -751.000000)" fill-rule="nonzero">
            <g id="Portfolio-Row-Copy-2" transform="translate(89.000000, 726.000000)">
                <g id="Choose-Sport-Copy-3" transform="translate(840.000000, 0.000000)">
                    <g id="003-baseball" transform="translate(93.000000, 25.000000)">
                        <g id="005-bicycle">
                            <path d="M62.5535534,41.175104 L52.6233304,7.25806452 L59.2741935,7.25806452 L59.2741935,10.8870968 C59.2741935,12.8876717 60.9026509,14.516129 62.9032258,14.516129 C64.9038008,14.516129 66.5322581,12.8876717 66.5322581,10.8870968 L66.5322581,6.0483871 C66.5322581,2.71350484 63.8187532,0 60.483871,0 L51.1283628,0 C47.6151005,0 44.7580645,2.85703594 44.7580645,6.37029829 C44.7580645,7.09858548 44.881513,7.81446895 45.1006489,8.42285156 L49.5276667,24.1935484 L30.3074991,24.1935484 L27.7611517,16.553325 L25.465836,17.318824 L36.6571241,50.8920977 C35.9176143,50.996645 35.2271295,51.2346821 34.5980737,51.5819918 L22.922442,16.553325 L20.6271263,17.318824 L24.868676,30.0422915 L17.8486485,41.9382402 C16.3920741,41.4095971 14.8693455,41.1290323 13.3064516,41.1290323 C5.96982898,41.1290323 -4.29763751e-15,47.0988612 -4.29763751e-15,54.4354839 C-4.29763751e-15,61.7721065 5.96982898,67.7419355 13.3064516,67.7419355 C18.3276761,67.7419355 22.8917276,64.9162046 25.1563288,60.483871 L32.6925954,60.483871 C33.5650043,61.6368448 34.8242976,62.4820833 36.2903226,62.7809586 L36.2903226,67.7419355 L32.6612903,67.7419355 C30.6607154,67.7419355 29.0322581,69.3703928 29.0322581,71.3709677 L29.0322581,75 L31.4516129,75 L31.4516129,71.3709677 C31.4516129,70.7035189 31.9950227,70.1612903 32.6612903,70.1612903 L42.3387097,70.1612903 C44.3392846,70.1612903 45.9677419,68.532833 45.9677419,66.5322581 L45.9677419,62.9032258 L43.5483871,62.9032258 L43.5483871,66.5322581 C43.5483871,67.199707 43.0049773,67.7419355 42.3387097,67.7419355 L38.7096774,67.7419355 L38.7096774,62.7809586 C41.4663008,62.2186476 43.5483871,59.7762569 43.5483871,56.8548387 C43.5483871,56.4774051 43.5034967,56.1123756 43.4373425,55.7538432 L53.6150533,38.7545678 L54.827684,43.0717222 C50.842482,45.4769011 48.3870968,49.728492 48.3870968,54.4354839 C48.3870968,61.7721065 54.3569258,67.7419355 61.6935484,67.7419355 C69.030171,67.7419355 75,61.7721065 75,54.4354839 C75,47.4060059 69.5174679,41.6482249 62.5535534,41.175104 Z M55.7674285,55.6451613 C55.9245448,56.4159762 56.2316894,57.1306783 56.652832,57.7656408 L53.1956826,61.2227902 C51.9422962,59.6563524 51.1112336,57.7414235 50.8779218,55.6451613 L55.7674285,55.6451613 Z M65.0550104,53.0793221 C65.2257119,53.5028273 65.3225806,53.9600004 65.3225806,54.4354839 C65.3225806,56.4360588 63.6941233,58.0645161 61.6935484,58.0645161 C59.6929734,58.0645161 58.0645161,56.4360588 58.0645161,54.4354839 C58.0645161,54.2695077 58.0910959,54.1088474 58.1129504,53.9470057 C58.8400564,54.9848002 60.0450085,55.6451613 61.3610052,55.6451613 C63.0520728,55.6451613 64.4879741,54.5748803 65.0550104,53.0793221 Z M58.3633914,59.4762003 C58.998354,59.8973428 59.713056,60.2044875 60.483871,60.3616037 L60.483871,65.2511105 C58.3876087,65.0177986 56.4726798,64.186736 54.9062421,62.9333496 L58.3633914,59.4762003 Z M62.9032258,60.3616037 C63.6740407,60.2044875 64.389924,59.8973428 65.0237053,59.4762003 L68.4808547,62.9333496 C66.9144169,64.186736 64.9994881,65.0177986 62.9032258,65.2511105 L62.9032258,60.3616037 Z M66.7342648,57.7656408 C67.1554074,57.1318595 67.462552,56.4159762 67.6196682,55.6451613 L72.509175,55.6451613 C72.2758632,57.7414235 71.4448006,59.6563524 70.1914142,61.2227902 L66.7342648,57.7656408 Z M67.6066737,53.2258065 C67.4513294,52.4626701 67.1565886,51.7450148 66.7330834,51.1065083 L70.1902328,47.6481776 C71.4436193,49.2146153 72.2746818,51.1295442 72.5079936,53.2258065 L67.6066737,53.2258065 Z M68.4808547,45.9376181 L65.0225239,49.3971302 C64.9983068,49.3811823 64.971727,49.3670064 64.9475097,49.3510585 L63.2865659,43.6789235 C65.2316186,43.9659857 67.0112856,44.7616086 68.4808547,45.9376181 L68.4808547,45.9376181 Z M47.1774194,6.37029829 C47.1774194,4.19134325 48.9494078,2.41935484 51.1283628,2.41935484 L60.483871,2.41935484 C62.4844459,2.41935484 64.1129032,4.04781215 64.1129032,6.0483871 L64.1129032,10.8870968 C64.1129032,11.5533644 63.5694934,12.0967742 62.9032258,12.0967742 C62.2369582,12.0967742 61.6935484,11.5533644 61.6935484,10.8870968 L61.6935484,7.25806452 C61.6935484,5.92375721 60.6085009,4.83870968 59.2741935,4.83870968 L52.6233304,4.83870968 C51.8542875,4.83870968 51.1478546,5.19192611 50.686547,5.80739667 C50.22583,6.42345801 50.0852524,7.20017964 50.3020255,7.93791744 L62.8417969,50.7674679 C62.8825526,50.9080456 62.9032258,51.05453 62.9032258,51.2010144 L62.9032258,51.6824046 C62.9032258,52.5341403 62.2115596,53.2258065 61.3610052,53.2258065 C60.6722924,53.2258065 60.061547,52.7627268 59.8754882,52.0994124 L47.4048245,7.68983906 C47.2536148,7.26515247 47.1774194,6.82156467 47.1774194,6.37029829 L47.1774194,6.37029829 Z M50.2063382,26.6129032 L50.8850097,29.0322581 L31.9211899,29.0322581 L31.1143444,26.6129032 L50.2063382,26.6129032 Z M49.846034,31.4516129 L38.724444,49.4420205 L32.7268539,31.4516129 L49.846034,31.4516129 Z M22.358359,48.3835527 C23.328818,49.8277234 23.9312941,51.4792166 24.1232595,53.2258065 L19.5450321,53.2258065 L22.358359,48.3835527 Z M26.5538369,53.2258065 C26.3199345,50.6056263 25.3246677,48.1537849 23.6784904,46.1118637 L27.8385286,38.9542119 L32.5957267,53.2258065 L26.5538369,53.2258065 Z M16.5940808,44.0622638 L14.0140657,48.435531 C13.7795725,48.40777 13.5433074,48.3870968 13.3064516,48.3870968 C12.076101,48.3870968 10.9319871,48.7609863 9.97629466,49.3947674 L6.51914531,45.9376181 C8.38209587,44.4461946 10.7394311,43.5483871 13.3064516,43.5483871 C14.4340269,43.5483871 15.5344317,43.727358 16.5940808,44.0622638 L16.5940808,44.0622638 Z M8.26573518,51.1053269 C7.84459264,51.7402895 7.53744798,52.4549915 7.38033175,53.2258065 L2.490825,53.2258065 C2.72413684,51.1295442 3.55519945,49.2146153 4.80858584,47.6481776 L8.26573518,51.1053269 Z M7.38033175,55.6451613 C7.53744798,56.4159762 7.84459264,57.1306783 8.26573518,57.7656408 L4.80858584,61.2227902 C3.55519945,59.6563524 2.72413684,57.7414235 2.490825,55.6451613 L7.38033175,55.6451613 Z M9.97629466,59.4762003 C10.6112572,59.8973428 11.3259593,60.2044875 12.0967742,60.3616037 L12.0967742,65.2511105 C10.0005119,65.0177986 8.08558306,64.186736 6.51914531,62.9333496 L9.97629466,59.4762003 Z M13.3064516,58.0645161 C11.3058767,58.0645161 9.67741935,56.4360588 9.67741935,54.4354839 C9.67741935,52.6611328 10.9597483,51.1850664 12.6460905,50.8731965 C12.2851957,51.7231603 12.0967742,52.6428222 12.0967742,53.5731162 C12.0967742,55.272453 12.7163794,56.8282589 13.7370448,58.0320296 C13.5941044,58.0485682 13.4517547,58.0645161 13.3064516,58.0645161 Z M14.516129,65.2327999 L14.516129,60.3474278 C15.0518602,60.2381552 15.5698715,60.0627284 16.0571682,59.8122874 C16.9537945,60.2381552 17.9514239,60.483871 19.007529,60.483871 L22.3376858,60.483871 C20.5621535,63.1329936 17.7086614,64.8760396 14.516129,65.2327999 L14.516129,65.2327999 Z M19.007529,58.0645161 C16.5314705,58.0645161 14.516129,56.0491746 14.516129,53.5731162 C14.516129,52.7698148 14.7317209,51.9812799 15.1392783,51.2890231 L25.8822534,33.0847955 L26.8184539,35.8933972 L16.9354839,52.89917 L16.9354839,55.6451613 L31.5738801,55.6451613 C31.4941406,56.0361801 31.4516129,56.4413747 31.4516129,56.8548387 C31.4516129,57.2683027 31.4941406,57.6734973 31.5738801,58.0645161 L19.007529,58.0645161 Z M38.7096774,60.2611911 L38.7096774,55.6451613 L36.2903226,55.6451613 L36.2903226,60.2611911 C34.8857265,59.7603091 33.8709677,58.4295457 33.8709677,56.8548387 C33.8709677,54.8542638 35.4994251,53.2258065 37.5,53.2258065 C39.5005749,53.2258065 41.1290323,54.8542638 41.1290323,56.8548387 C41.1290323,58.4295457 40.1142735,59.7603091 38.7096774,60.2611911 Z M42.2058106,53.1011766 C41.6830739,52.4467222 41.0321636,51.9098097 40.2843844,51.5176096 L51.9168977,32.703818 L52.7154738,35.5490407 L42.2058106,53.1011766 Z M55.502221,45.4792638 L56.9688366,50.702495 C56.3769925,51.4473207 55.9523059,52.2990566 55.7650659,53.2258065 L50.8885538,53.2258065 C51.2370448,50.0817083 52.9050765,47.2695628 55.502221,45.4792638 L55.502221,45.4792638 Z" id="Shape" fill="#273238"></path>
                            <path d="M32.6612903,18.1451613 L15.7258065,18.1451613 L15.7258065,14.516129 C15.7258065,12.5155541 17.3542638,10.8870968 19.3548387,10.8870968 L26.6129032,10.8870968 C29.9477855,10.8870968 32.6612903,13.6006016 32.6612903,16.9354839 L32.6612903,18.1451613 Z" id="Path" fill="#F6754B"></path>
                        </g>
                    </g>
                </g>
            </g>
        </g>
    </g>
</svg>