<?xml version="1.0" encoding="UTF-8"?>
<svg width="75px" height="75px" viewBox="0 0 75 75" version="1.1" xmlns="http://www.w3.org/2000/svg" xmlns:xlink="http://www.w3.org/1999/xlink">
    <!-- Generator: Sketch 62 (91390) - https://sketch.com -->
    <title>013-golf</title>
    <desc>Created with Sketch.</desc>
    <g id="Page-1" stroke="none" stroke-width="1" fill="none" fill-rule="evenodd">
        <g id="LAS-Homepage-Copy-4" transform="translate(-182.000000, -751.000000)" fill-rule="nonzero">
            <g id="Portfolio-Row-Copy-2" transform="translate(89.000000, 726.000000)">
                <g id="Choose-Sport">
                    <g id="013-golf" transform="translate(93.000000, 25.000000)">
                        <g>
                            <path d="M56.1820737,54.4354839 L67.2038416,54.4354839 C71.7968356,52.3356776 75,47.7084253 75,42.3387097 C75,35.002087 69.030171,29.0322581 61.6935484,29.0322581 C54.3569258,29.0322581 48.3870968,35.002087 48.3870968,42.3387097 C48.3870968,47.7084253 51.5902612,52.3356776 56.1820737,54.4354839 L56.1820737,54.4354839 Z" id="Path" fill="#F6754B"></path>
                            <path d="M7.25806452,54.1123913 C7.98280781,54.3179419 8.74476275,54.4354839 9.53566028,54.4354839 L24.1935484,54.4354839 L24.1935484,37.097168 L12.1694258,33.0895208 C11.3200526,32.805412 10.4311051,32.6612903 9.53566028,32.6612903 C8.74476275,32.6612903 7.98280781,32.7788323 7.25806452,32.9843829 L7.25806452,54.1123913 Z" id="Path" fill="#F6754B"></path>
                            <path d="M71.2244834,-4.29763751e-15 C70.2156313,-4.29763751e-15 69.2676175,0.392200101 68.5546875,1.10572077 L39.3145161,30.3458921 L37.5,28.531376 L28.7056216,37.3257544 L12.5515845,31.9412723 C11.578763,31.6175891 10.5640042,31.4516129 9.53566028,31.4516129 C4.27757994,31.4516129 0,35.7291928 0,40.9872732 L0,46.109501 C0,51.3675814 4.27757994,55.6451613 9.53566028,55.6451613 L24.3737005,55.6451613 C26.9200479,55.6451613 29.3140042,54.6546198 31.1167071,52.8519169 L46.468624,37.5 L44.6541079,35.6854839 L73.8942792,6.4453125 C74.597168,5.74242369 75,4.76960217 75,3.77551663 C75,1.69343029 73.3065697,-4.29763751e-15 71.2244834,-4.29763751e-15 Z M29.4061476,51.1413575 C28.0606178,52.485706 26.2744535,53.2258065 24.3737005,53.2258065 L9.53566028,53.2258065 C5.61188725,53.2258065 2.41935484,50.033274 2.41935484,46.109501 L2.41935484,40.9872732 C2.41935484,37.0635002 5.61188725,33.8709677 9.53566028,33.8709677 C10.3029313,33.8709677 11.0601609,33.9944162 11.7860855,34.2359973 L37.6801521,42.8685342 L29.4061476,51.1413575 Z M39.5927183,40.9547867 L31.2714608,38.1810342 L37.5,31.952495 L43.047505,37.5 L39.5927183,40.9547867 Z M41.0250756,32.0564516 L43.5483871,29.5331401 L45.4668599,31.4516129 L42.9435484,33.9749244 L41.0250756,32.0564516 Z M72.1837198,4.73475302 L47.1774194,29.7410534 L45.2589466,27.8225806 L70.265247,2.81628024 C70.5215946,2.55993266 70.8618163,2.41935484 71.2244834,2.41935484 C71.9722624,2.41935484 72.5806452,3.0277376 72.5806452,3.77551663 C72.5806452,4.13227697 72.435342,4.48194934 72.1837198,4.73475302 Z" id="Shape" fill="#273238"></path>
                            <path d="M50.8064516,56.8548387 C50.8064516,58.8554137 52.4349089,60.483871 54.4354839,60.483871 L55.8300387,60.483871 L58.2493935,75 L65.1377032,75 L67.5570581,60.483871 L68.9516129,60.483871 C70.9521879,60.483871 72.5806452,58.8554137 72.5806452,56.8548387 L72.5806452,53.2258065 L50.8064516,53.2258065 L50.8064516,56.8548387 Z M63.0881032,72.5806452 L60.2989935,72.5806452 L58.2824707,60.483871 L65.1034447,60.483871 L63.0881032,72.5806452 Z M53.2258065,55.6451613 L70.1612903,55.6451613 L70.1612903,56.8548387 C70.1612903,57.5222876 69.6178805,58.0645161 68.9516129,58.0645161 L54.4354839,58.0645161 C53.7692162,58.0645161 53.2258065,57.5222876 53.2258065,56.8548387 L53.2258065,55.6451613 Z" id="Shape" fill="#273238"></path>
                            <polygon id="Path" fill="#273238" points="60.483871 33.8709677 62.9032258 33.8709677 62.9032258 36.2903226 60.483871 36.2903226"></polygon>
                            <polygon id="Path" fill="#273238" points="60.483871 38.7096774 62.9032258 38.7096774 62.9032258 41.1290323 60.483871 41.1290323"></polygon>
                            <polygon id="Path" fill="#273238" points="60.483871 43.5483871 62.9032258 43.5483871 62.9032258 45.9677419 60.483871 45.9677419"></polygon>
                            <polygon id="Path" fill="#273238" points="60.483871 48.3870968 62.9032258 48.3870968 62.9032258 50.8064516 60.483871 50.8064516"></polygon>
                            <polygon id="Path" fill="#273238" points="65.3225806 38.7096774 67.7419355 38.7096774 67.7419355 41.1290323 65.3225806 41.1290323"></polygon>
                            <polygon id="Path" fill="#273238" points="65.3225806 43.5483871 67.7419355 43.5483871 67.7419355 45.9677419 65.3225806 45.9677419"></polygon>
                            <polygon id="Path" fill="#273238" points="55.6451613 43.5483871 58.0645161 43.5483871 58.0645161 45.9677419 55.6451613 45.9677419"></polygon>
                            <polygon id="Path" fill="#273238" points="55.6451613 38.7096774 58.0645161 38.7096774 58.0645161 41.1290323 55.6451613 41.1290323"></polygon>
                            <polygon id="Path" fill="#273238" points="55.6451613 33.8709677 58.0645161 33.8709677 58.0645161 36.2903226 55.6451613 36.2903226"></polygon>
                            <polygon id="Path" fill="#273238" points="65.3225806 33.8709677 67.7419355 33.8709677 67.7419355 36.2903226 65.3225806 36.2903226"></polygon>
                            <polygon id="Path" fill="#273238" points="65.3225806 48.3870968 67.7419355 48.3870968 67.7419355 50.8064516 65.3225806 50.8064516"></polygon>
                            <polygon id="Path" fill="#273238" points="55.6451613 48.3870968 58.0645161 48.3870968 58.0645161 50.8064516 55.6451613 50.8064516"></polygon>
                            <polygon id="Path" fill="#273238" points="51.0498047 43.5483871 53.2258065 43.5483871 53.2258065 45.9677419 51.0498047 45.9677419"></polygon>
                            <polygon id="Path" fill="#273238" points="51.0498047 38.7096774 53.2258065 38.7096774 53.2258065 41.1290323 51.0498047 41.1290323"></polygon>
                            <polygon id="Path" fill="#273238" points="70.1612903 38.7096774 72.3372921 38.7096774 72.3372921 41.1290323 70.1612903 41.1290323"></polygon>
                            <polygon id="Path" fill="#273238" points="70.1612903 43.5483871 72.3372921 43.5483871 72.3372921 45.9677419 70.1612903 45.9677419"></polygon>
                            <polygon id="Path" fill="#273238" points="7.25806452 48.3870968 14.516129 48.3870968 14.516129 50.8064516 7.25806452 50.8064516"></polygon>
                            <polygon id="Path" fill="#273238" points="7.25806452 43.5483871 14.516129 43.5483871 14.516129 45.9677419 7.25806452 45.9677419"></polygon>
                            <polygon id="Path" fill="#273238" points="7.25806452 38.7096774 14.516129 38.7096774 14.516129 41.1290323 7.25806452 41.1290323"></polygon>
                        </g>
                    </g>
                </g>
            </g>
        </g>
    </g>
</svg>