<?xml version="1.0" encoding="UTF-8"?>
<svg width="75px" height="75px" viewBox="0 0 75 75" version="1.1" xmlns="http://www.w3.org/2000/svg" xmlns:xlink="http://www.w3.org/1999/xlink">
    <!-- Generator: Sketch 63.1 (92452) - https://sketch.com -->
    <title>015-hockey</title>
    <desc>Created with Sketch.</desc>
    <g id="Page-1" stroke="none" stroke-width="1" fill="none" fill-rule="evenodd">
        <g id="LAS-Homepage-Copy-11" transform="translate(-722.000000, -1025.000000)" fill-rule="nonzero">
            <g id="Choose-Sport-Copy-6" transform="translate(650.000000, 1000.000000)">
                <g id="015-hockey" transform="translate(72.000000, 25.000000)">
                    <path d="M18.1451613,55.6451613 L10.8870968,55.6451613 C7.55221452,55.6451613 4.83870968,52.9316565 4.83870968,49.5967742 C4.83870968,47.5961992 6.46716699,45.9677419 8.46774194,45.9677419 L9.67741935,45.9677419 L9.67741935,48.3870968 L8.46774194,48.3870968 C7.80147429,48.3870968 7.25806452,48.9293253 7.25806452,49.5967742 C7.25806452,51.5973491 8.88652182,53.2258065 10.8870968,53.2258065 L18.1451613,53.2258065 L18.1451613,55.6451613 Z" id="Path" fill="#000000"></path>
                    <polygon id="Path" fill="#000000" points="20.5645161 53.2258065 22.983871 53.2258065 22.983871 55.6451613 20.5645161 55.6451613"></polygon>
                    <path d="M73.7903226,3.92790756 L73.7903226,3.80682172 C73.7903226,2.37210181 72.6278982,1.20967742 71.1931783,1.20967742 C70.5304545,1.20967742 69.8913575,1.4636625 69.4099672,1.91847278 L39.0593498,30.5845199 L38.200526,31.4433435 L46.053388,39.2950243 L46.9110304,38.4362005 L73.2215143,5.54986769 C73.5894972,5.08915071 73.7903226,4.51679849 73.7903226,3.92790756 L73.7903226,3.92790756 Z" id="Path" fill="#EE7A5B"></path>
                    <path d="M56.8548387,75 C48.2890467,75 38.7096774,70.8618163 38.7096774,65.3225806 L38.7096774,58.0645161 L41.1290323,58.0645161 L41.1290323,65.3225806 C41.1290323,68.9179452 49.0657683,72.5806452 56.8548387,72.5806452 C64.6439091,72.5806452 72.5806452,68.9179452 72.5806452,65.3225806 L72.5806452,58.0645161 L75,58.0645161 L75,65.3225806 C75,70.8618163 65.4206307,75 56.8548387,75 Z" id="Path" fill="#000000"></path>
                    <path d="M56.8548387,48.3870968 C48.2890467,48.3870968 38.7096774,52.5252804 38.7096774,58.0645161 C38.7096774,63.6037518 48.2890467,67.7419355 56.8548387,67.7419355 C65.4206307,67.7419355 75,63.6037518 75,58.0645161 C75,52.5252804 65.4206307,48.3870968 56.8548387,48.3870968 Z M56.8548387,61.6935484 C50.6091702,61.6935484 44.7580645,58.9682301 44.7580645,58.0645161 C44.7580645,57.1608021 50.6091702,54.4354839 56.8548387,54.4354839 C63.1005073,54.4354839 68.9516129,57.1608021 68.9516129,58.0645161 C68.9516129,58.9682301 63.1005073,61.6935484 56.8548387,61.6935484 Z" id="Shape" fill="#EE7A5B"></path>
                    <path d="M56.8548387,62.9032258 C51.2902045,62.9032258 43.5483871,60.4643791 43.5483871,58.0645161 C43.5483871,55.6646531 51.2902045,53.2258065 56.8548387,53.2258065 C62.4194729,53.2258065 70.1612903,55.6646531 70.1612903,58.0645161 C70.1612903,60.4643791 62.4194729,62.9032258 56.8548387,62.9032258 Z M46.522965,58.0645161 C48.1839088,58.9936287 52.3197296,60.483871 56.8548387,60.483871 C61.3899478,60.483871 65.5257686,58.9936287 67.1867124,58.0645161 C65.5257686,57.1354036 61.3899478,55.6451613 56.8548387,55.6451613 C52.3197296,55.6451613 48.1839088,57.1354036 46.522965,58.0645161 Z" id="Shape" fill="#000000"></path>
                    <path d="M71.1943595,0 C70.217994,0 69.2900627,0.369164214 68.580086,1.03897591 L27.8804655,39.4775391 C26.753481,40.5436854 25.2774147,41.1290323 23.7263341,41.1290323 L8.46774194,41.1290323 C3.79855252,41.1290323 -8.59527503e-15,44.928766 -8.59527503e-15,49.5967742 C-8.59527503e-15,55.6002709 4.88478145,60.483871 10.8870968,60.483871 L25.5904659,60.483871 C28.9158975,60.483871 32.0151051,58.9959913 34.0924663,56.398847 L74.1665747,6.30473468 C74.7034872,5.63196986 75,4.7879126 75,3.92790756 L75,3.80564047 C75,1.70701542 73.2918032,0 71.1943595,0 Z M35.2985997,35.7994818 L42.0616889,42.5625709 L40.3558547,44.6936823 L33.3240139,37.6618415 L35.2985997,35.7994818 Z M32.202936,54.8867503 C30.5880638,56.906817 28.1769783,58.0645161 25.5904659,58.0645161 L10.8870968,58.0645161 C6.21790736,58.0645161 2.41935484,54.2647824 2.41935484,49.5967742 C2.41935484,46.2618919 5.13285968,43.5483871 8.46774194,43.5483871 L23.7263341,43.5483871 C25.8982013,43.5483871 27.9631585,42.7267751 29.5414095,41.236533 L31.5656108,39.325148 L38.8354886,46.5956165 L32.202936,54.8867503 Z M72.5806452,3.92790756 C72.5806452,4.24095892 72.4731445,4.5498756 72.2770446,4.7938193 L43.5820548,40.6618179 L37.0570028,34.1373567 L70.2410298,2.79796966 C70.4997401,2.55343533 70.8387806,2.41935484 71.1943595,2.41935484 C71.9586773,2.41935484 72.5806452,3.04250413 72.5806452,3.80564047 L72.5806452,3.92790756 Z" id="Shape" fill="#000000"></path>
                </g>
            </g>
        </g>
    </g>
</svg>