<?xml version="1.0" encoding="UTF-8"?>
<svg width="76px" height="77px" viewBox="0 0 76 77" version="1.1" xmlns="http://www.w3.org/2000/svg" xmlns:xlink="http://www.w3.org/1999/xlink">
    <!-- Generator: Sketch 63.1 (92452) - https://sketch.com -->
    <title>Group 12</title>
    <desc>Created with Sketch.</desc>
    <g id="Page-1" stroke="none" stroke-width="1" fill="none" fill-rule="evenodd">
        <g id="Artboard" transform="translate(-804.000000, -745.000000)">
            <g id="Group-12" transform="translate(804.000000, 745.000000)">
                <rect id="Rectangle" fill-opacity="0.0148874563" fill="#573C4D" x="0" y="0.5" width="76" height="76"></rect>
                <g id="Group-9" transform="translate(0.000000, 21.000000)">
                    <path d="M12,0.756578947 C18.627417,0.756578947 24,6.12916195 24,12.7565789 C24,19.3839959 18.627417,24.7565789 12,24.7565789 C5.372583,24.7565789 0,19.3839959 0,12.7565789 C0,6.12916195 5.372583,0.756578947 12,0.756578947 Z M12,3.75657895 C7.02943725,3.75657895 3,7.7860162 3,12.7565789 C3,17.7271417 7.02943725,21.7565789 12,21.7565789 C16.9705627,21.7565789 21,17.7271417 21,12.7565789 C21,7.7860162 16.9705627,3.75657895 12,3.75657895 Z" id="Combined-Shape" fill="#273238"></path>
                    <path d="M25,12 C31.627417,12 37,17.372583 37,24 C37,30.627417 31.627417,36 25,36 C18.372583,36 13,30.627417 13,24 C13,17.372583 18.372583,12 25,12 Z M25,15 C20.0294373,15 16,19.0294373 16,24 C16,28.9705627 20.0294373,33 25,33 C29.9705627,33 34,28.9705627 34,24 C34,19.0294373 29.9705627,15 25,15 Z" id="Combined-Shape-Copy" fill="#273238"></path>
                    <path d="M38,0.756578947 C44.627417,0.756578947 50,6.12916195 50,12.7565789 C50,19.3839959 44.627417,24.7565789 38,24.7565789 C31.372583,24.7565789 26,19.3839959 26,12.7565789 C26,6.12916195 31.372583,0.756578947 38,0.756578947 Z M38,3.75657895 C33.0294373,3.75657895 29,7.7860162 29,12.7565789 C29,17.7271417 33.0294373,21.7565789 38,21.7565789 C42.9705627,21.7565789 47,17.7271417 47,12.7565789 C47,7.7860162 42.9705627,3.75657895 38,3.75657895 Z" id="Combined-Shape-Copy-2" fill="#F07B5C"></path>
                    <path d="M64,0.756578947 C70.627417,0.756578947 76,6.12916195 76,12.7565789 C76,19.3839959 70.627417,24.7565789 64,24.7565789 C57.372583,24.7565789 52,19.3839959 52,12.7565789 C52,6.12916195 57.372583,0.756578947 64,0.756578947 Z M64,3.75657895 C59.0294373,3.75657895 55,7.7860162 55,12.7565789 C55,17.7271417 59.0294373,21.7565789 64,21.7565789 C68.9705627,21.7565789 73,17.7271417 73,12.7565789 C73,7.7860162 68.9705627,3.75657895 64,3.75657895 Z" id="Combined-Shape-Copy-3" fill="#273238"></path>
                    <path d="M51,12 C57.627417,12 63,17.372583 63,24 C63,30.627417 57.627417,36 51,36 C44.372583,36 39,30.627417 39,24 C39,17.372583 44.372583,12 51,12 Z M51,15 C46.0294373,15 42,19.0294373 42,24 C42,28.9705627 46.0294373,33 51,33 C55.9705627,33 60,28.9705627 60,24 C60,19.0294373 55.9705627,15 51,15 Z" id="Combined-Shape-Copy-4" fill="#273238"></path>
                </g>
            </g>
        </g>
    </g>
</svg>