<?xml version="1.0" encoding="UTF-8"?>
<svg width="75px" height="75px" viewBox="0 0 75 75" version="1.1" xmlns="http://www.w3.org/2000/svg" xmlns:xlink="http://www.w3.org/1999/xlink">
    <!-- Generator: Sketch 62 (91390) - https://sketch.com -->
    <title>003-baseball</title>
    <desc>Created with Sketch.</desc>
    <g id="Page-1" stroke="none" stroke-width="1" fill="none" fill-rule="evenodd">
        <g id="LAS-Homepage-Copy-4" transform="translate(-742.000000, -391.000000)" fill-rule="nonzero">
            <g id="Portfolio-Row" transform="translate(89.000000, 366.000000)">
                <g id="Choose-Sport-Copy-2" transform="translate(560.000000, 0.000000)">
                    <g id="003-baseball" transform="translate(93.000000, 25.000000)">
                        <g id="012-soccer">
                            <polygon id="Path" fill="#273238" points="49.6750722 36.2919385 52.0869579 36.2919385 52.0869579 43.5421838 49.6750722 43.5421838"></polygon>
                            <polygon id="Path" fill="#273238" points="37.7445991 44.5877107 38.950542 42.4942968 45.216381 46.1194195 44.0104381 48.2128334"></polygon>
                            <polygon id="Path" fill="#273238" points="37.7457769 56.9977376 44.0127934 53.373205 45.2181475 55.466619 38.9517198 59.0911517"></polygon>
                            <polygon id="Path" fill="#273238" points="49.6750722 58.0426745 52.0869579 58.0426745 52.0869579 65.2929198 49.6750722 65.2929198"></polygon>
                            <polygon id="Path" fill="#273238" points="56.5421161 55.4630787 57.748059 53.3702549 64.0144868 56.9953776 62.8085439 59.0882014"></polygon>
                            <polygon id="Path" fill="#273238" points="56.5450603 46.1229597 62.8114882 42.498427 64.0174311 44.591841 57.7504144 48.2157836"></polygon>
                            <g id="Group" transform="translate(28.339658, 27.792607)" fill="#F6754B">
                                <polygon id="Path" points="22.5413572 31.6590506 15.3056999 27.3087854 15.3056999 18.6890887 22.5413572 14.3394135 29.7770145 18.6890887 29.7770145 27.3087854"></polygon>
                                <path d="M0.077137986,18.4849394 L3.84924247,20.5588825 L11.227399,16.4552484 L11.0848998,8.00016903 L7.28040911,5.90852521 C3.66022509,9.15662092 1.06462145,13.5234068 0.077137986,18.4849394 L0.077137986,18.4849394 Z" id="Path"></path>
                                <path d="M0.0906811768,27.6008486 C1.09641885,32.5564808 3.71086534,36.9138265 7.34400375,40.1489417 L11.0848998,38.0000652 L11.227399,29.5467558 L3.84924247,25.4419416 L0.0906811768,27.6008486 Z" id="Path"></path>
                                <path d="M15.3056999,40.4410047 L15.3056999,44.771799 C17.5827415,45.5311631 20.0099372,45.9589323 22.5413572,45.9589323 C25.0727774,45.9589323 27.5005619,45.5311631 29.7770145,44.771799 L29.7770145,40.4410047 L22.5413572,36.0913295 L15.3056999,40.4410047 Z" id="Path"></path>
                                <path d="M41.2334719,25.4419416 L33.8559044,29.5455758 L33.9978146,37.998885 L37.6456741,40.2333153 C41.2976555,37.016491 43.9303559,32.671536 44.963769,27.7241641 L41.2334719,25.4419416 Z" id="Path"></path>
                                <path d="M44.9802565,18.340383 C43.9615644,13.3882908 41.3371077,9.03802564 37.6951366,5.81176071 L33.9978146,8.00016903 L33.8559044,16.4540684 L41.2334719,20.5577024 L44.9802565,18.340383 Z" id="Path"></path>
                                <path d="M22.5413572,0.0407117891 C20.0099372,0.0407117891 17.5827415,0.468480946 15.3056999,1.22725507 L15.3056999,5.5580494 L22.5413572,9.90831458 L29.7770145,5.5580494 L29.7770145,1.22725507 C27.5005619,0.468480946 25.0727774,0.0407117891 22.5413572,0.0407117891 Z" id="Path"></path>
                            </g>
                            <path d="M74.6718893,46.9967889 L74.7019202,46.9920687 L68.3718976,5.17748237 C67.9226133,2.20079868 65.4153355,0.0407117891 62.4110775,0.0407117891 L12.7201065,0.0407117891 C9.78886452,0.0407117891 7.29100829,2.13943593 6.78225113,5.03233578 L8.57798071e-15,43.5421838 L27.8738859,43.5421838 C27.1543244,45.8320767 26.7621573,48.2665258 26.7621573,50.7924292 C26.7621573,64.1181772 37.5820795,74.9599136 50.881015,74.9599136 C64.1805395,74.9599136 74.9998728,64.1181772 74.9998728,50.7924292 C74.9998728,49.4979111 74.8685616,48.2364345 74.6718893,46.9967889 Z M9.1582176,5.45302462 C9.46323643,3.71657681 10.9606548,2.45746024 12.7201065,2.45746024 L62.4110775,2.45746024 C64.2141034,2.45746024 65.717999,3.75256839 65.9882761,5.53975855 L70.7731844,37.1533771 C70.1643244,36.2642073 69.4830374,35.4310898 68.7628869,34.632784 L63.8749319,6.87026829 C63.6711934,5.71263627 62.6731109,4.87420868 61.5007319,4.87420868 L13.7311437,4.87420868 C12.5587646,4.87420868 11.5600931,5.71263627 11.3551771,6.87026829 L5.32428488,41.1254354 L2.87471339,41.1254354 L9.1582176,5.45302462 Z M32.3496534,35.3478961 L31.4822931,34.4793771 L37.6156433,28.3330714 L39.0412233,29.7615254 C36.4868384,31.2106305 34.216274,33.1028454 32.3496534,35.3478961 L32.3496534,35.3478961 Z M63.6676605,19.6042196 L62.8368082,18.7705122 L63.4191704,18.1863861 L63.6676605,19.6042196 Z M61.1315296,17.0617956 L54.9981794,10.9160798 L58.6160081,7.29095713 L61.5007319,7.29095713 L62.9080577,15.2828659 L61.1315296,17.0617956 Z M53.2929008,24.916228 L47.1595507,18.7705122 L53.2929008,12.6242065 L59.426251,18.7705122 L53.2929008,24.916228 Z M53.2929008,9.20736312 L51.3803508,7.29095713 L55.2054509,7.29095713 L53.2929008,9.20736312 Z M47.9697935,7.29095713 L51.5876222,10.9160798 L45.4542721,17.0617956 L39.3209219,10.9160798 L42.9387506,7.29095713 L47.9697935,7.29095713 Z M43.7489934,18.7705122 L37.6156433,24.916228 L31.4822931,18.7705122 L37.6156433,12.6242065 L43.7489934,18.7705122 Z M37.6156433,9.20736312 L35.7030932,7.29095713 L39.5281933,7.29095713 L37.6156433,9.20736312 Z M32.292536,7.29095713 L35.9103647,10.9160798 L29.7770145,17.0617956 L23.6436644,10.9160798 L27.261493,7.29095713 L32.292536,7.29095713 Z M10.831699,23.7538759 L14.099757,20.4786389 L20.2331072,26.6249447 L14.099757,32.7706605 L9.97317119,28.6351649 L10.831699,23.7538759 Z M15.8050356,18.7705122 L21.9383858,12.6242065 L28.0717359,18.7705122 L21.9383858,24.916228 L15.8050356,18.7705122 Z M21.9383858,9.20736312 L20.0258357,7.29095713 L23.8509358,7.29095713 L21.9383858,9.20736312 Z M16.6152785,7.29095713 L20.2331072,10.9160798 L14.099757,17.0617956 L12.3238177,15.2828659 L13.7311437,7.29095713 L16.6152785,7.29095713 Z M11.8121164,18.1875661 L12.3944784,18.7716924 L11.5624485,19.6053997 L11.8121164,18.1875661 Z M9.46205868,31.5404553 L12.3944784,34.4793771 L8.20547568,38.6768256 L9.46205868,31.5404553 Z M14.099757,36.1875038 L19.0271643,41.1254354 L9.17234974,41.1254354 L14.099757,36.1875038 Z M15.8050356,34.4793771 L21.9383858,28.3330714 L28.0717359,34.4793771 L21.9383858,40.6250929 L15.8050356,34.4793771 Z M23.6436644,26.6249447 L29.7770145,20.4786389 L35.9103647,26.6249447 L29.7770145,32.7706605 L23.6436644,26.6249447 Z M41.3117877,28.6186442 L39.3209219,26.6249447 L45.4542721,20.4786389 L51.5876222,26.6249447 L51.5540584,26.6585763 C51.3285329,26.652676 51.1077181,26.6249447 50.881015,26.6249447 C47.4816458,26.6249447 44.2483292,27.3412369 41.3117877,28.6186442 Z M61.1315296,20.4786389 L64.39841,23.7526958 L65.8251677,31.8578895 C62.6536791,29.3384765 58.8391782,27.6155992 54.670196,26.9524094 L61.1315296,20.4786389 Z M24.8496073,41.1254354 L29.7770145,36.1875038 L30.8828548,37.2955735 C30.0726119,38.4980475 29.3777816,39.7825351 28.7907088,41.1254354 L24.8496073,41.1254354 Z M50.881015,72.5431652 C38.9122675,72.5431652 29.1740431,62.7853074 29.1740431,50.7924292 C29.1740431,38.7989611 38.9122675,29.0416931 50.881015,29.0416931 C62.8503515,29.0416931 72.587987,38.7989611 72.587987,50.7924292 C72.587987,62.7853074 62.8503515,72.5431652 50.881015,72.5431652 Z" id="Shape" fill="#273238"></path>
                        </g>
                    </g>
                </g>
            </g>
        </g>
    </g>
</svg>