<?xml version="1.0" encoding="UTF-8"?>
<svg width="75px" height="75px" viewBox="0 0 75 75" version="1.1" xmlns="http://www.w3.org/2000/svg" xmlns:xlink="http://www.w3.org/1999/xlink">
    <!-- Generator: Sketch 62 (91390) - https://sketch.com -->
    <title>029-tennis</title>
    <desc>Created with Sketch.</desc>
    <g id="Page-1" stroke="none" stroke-width="1" fill="none" fill-rule="evenodd">
        <g id="LAS-Homepage-Copy-4" transform="translate(-182.000000, -571.000000)" fill-rule="nonzero">
            <g id="Portfolio-Row-Copy" transform="translate(89.000000, 546.000000)">
                <g id="Choose-Sport">
                    <g id="029-tennis" transform="translate(93.000000, 25.000000)">
                        <g>
                            <g id="Group" transform="translate(0.000000, 42.338710)" fill="#F6754B">
                                <path d="M44.7580645,14.516129 C43.0150185,14.516129 41.3623441,14.8923812 39.8661953,15.5551049 C39.8224861,19.6365848 41.3481682,23.73165 44.4568264,26.8450337 C47.5961992,29.9903132 51.7343829,31.5130418 55.8483493,31.4368464 C56.4933531,29.959008 56.8548387,28.3293693 56.8548387,26.6129032 C56.8548387,19.9319162 51.4390515,14.516129 44.7580645,14.516129 Z" id="Path"></path>
                                <path d="M7.18659435,32.6612903 C3.2238375,32.6612903 0,29.4327275 0,25.4646547 C0,23.5414567 0.747779032,21.7340285 2.10512223,20.3760947 L16.9100853,5.54632379 L27.0736202,15.7258065 L12.2710198,30.5526242 C10.9124953,31.9123299 9.10742979,32.6612903 7.18659435,32.6612903 L7.18659435,32.6612903 Z" id="Path"></path>
                                <path d="M55.4466986,0.00472530242 C54.7993322,1.48669824 54.4354839,3.1186996 54.4354839,4.83870968 C54.4354839,11.5196967 59.8512711,16.9354839 66.5322581,16.9354839 C68.2050151,16.9354839 69.7986233,16.5958527 71.2475193,15.982154 C71.3142641,11.872913 69.7921261,7.74181739 66.6616133,4.60657923 C63.5659494,1.50619022 59.5015987,-0.0242171371 55.4466986,0.00472530242 Z" id="Path"></path>
                            </g>
                            <path d="M65.0674143,44.0622638 C65.1820028,43.9524005 65.3030888,43.8531691 65.4159054,43.7397618 C76.6910676,32.444517 78.2202936,15.5988139 68.8234391,6.18601149 C64.8411904,2.196675 59.2848254,0 53.1820975,0 C45.3835765,0 37.4167166,3.49967707 31.3246204,9.60122389 C23.5910723,17.3465852 20.4457929,27.7014948 22.2603091,36.4805159 L15.4328377,49.830086 L25.1321115,59.5441264 L38.3310626,52.7627268 C38.6990456,52.8436476 39.0664378,52.9210244 39.4415087,52.9836348 C37.6210858,58.8111139 39.0002835,65.4312626 43.6003654,70.0390231 C46.7952605,73.2386434 51.0397635,75 55.5583338,75 L55.5595152,75 C60.0751323,75 64.3231792,73.2386434 67.5180742,70.0378418 C74.1086899,63.435413 74.1086899,52.6924379 67.5180742,46.0888278 C66.758482,45.3292355 65.9345073,44.6564705 65.0674143,44.0622638 Z M25.5969632,56.5849058 L18.3885144,49.3634623 L23.2608918,39.8372527 C24.2833291,42.5478042 25.8096018,45.0433547 27.9159054,47.1532022 C29.9277029,49.1685437 32.3263845,50.7084015 34.9949991,51.7550561 L25.5969632,56.5849058 Z M29.6288274,45.4450054 C21.1717175,36.9749008 22.6997622,21.6619675 33.0363612,11.3094207 C38.6783723,5.66032167 46.0209015,2.41935484 53.1820975,2.41935484 C58.639231,2.41935484 63.5854414,4.36440741 67.1116982,7.89538972 C75.5676269,16.3654943 74.0395824,31.6778368 63.7041646,42.031565 C63.4330503,42.3038605 63.1489415,42.5513483 62.8671954,42.804152 C62.0573967,42.4149051 61.2239714,42.078818 60.3616037,41.824833 C60.9363188,41.3334015 61.4879977,40.8325195 62.000693,40.3210055 C71.3940036,30.9135191 72.9220482,17.1363092 65.4094081,9.60831184 C62.2912991,6.4872496 58.0645161,4.83870968 53.1820975,4.83870968 C46.6546828,4.83870968 39.9353028,7.82155675 34.741014,13.0235241 C30.1001764,17.6720404 27.2336899,23.4977477 26.6696069,29.4291835 C26.1303318,35.100137 27.7865503,40.1816091 31.3317083,43.7320833 C34.0393066,46.4455881 37.5897807,48.0421497 41.67953,48.414858 C41.1762853,49.1396011 40.7397854,49.8956495 40.3635333,50.6747338 C36.1597861,50.0675324 32.4592836,48.2807775 29.6288274,45.4450054 Z M43.6109973,46.0799679 C43.5932775,46.0817398 43.5749669,46.0841025 43.5566565,46.0841025 C42.8768035,46.0841025 42.2199865,46.0344868 41.5732107,45.9630166 L42.8768035,44.6564705 L43.9718923,45.7521501 C43.8543505,45.8649665 43.727358,45.9641979 43.6109973,46.0799679 L43.6109973,46.0799679 Z M61.1093829,37.7191359 L55.4567398,32.0576329 L59.1808687,28.3270068 L64.3219978,33.476405 C63.428325,34.9524714 62.3420961,36.3724247 61.1093829,37.7191359 Z M53.7473617,19.4564327 L50.0214608,15.7258065 L53.7473617,11.9939988 L57.4732627,15.7246252 L53.7473617,19.4564327 Z M59.1820502,17.4387286 L62.9067699,21.1693548 L59.1808688,24.8999811 L55.4579212,21.1693548 L59.1820502,17.4387286 Z M52.0368023,21.1693548 L48.3120826,24.8999811 L44.5861816,21.1693548 L48.3109013,17.4387286 L52.0368023,21.1693548 Z M46.6027045,26.611722 L42.8779848,30.3423481 L39.1526746,26.6129032 L42.8768035,22.882277 L46.6027045,26.611722 Z M41.1662441,32.0564516 L37.4421151,35.7870779 L33.7173954,32.0564516 L37.4421151,28.3258254 L41.1662441,32.0564516 Z M42.8768035,33.7693737 L46.6015231,37.5 L42.8756221,41.2306263 L39.1526746,37.5 L42.8768035,33.7693737 Z M44.587363,32.0564516 L48.3120826,28.3258254 L52.0368023,32.0564516 L48.3120826,35.7870779 L44.587363,32.0564516 Z M50.0214608,26.6129032 L53.7461803,22.882277 L57.4714907,26.6129032 L53.7473617,30.3435295 L50.0214608,26.6129032 Z M65.516318,31.2448808 L60.8926096,26.6129032 L64.6173293,22.882277 L67.3851752,25.6548481 C67.0219175,27.5225239 66.3969963,29.4037849 65.516318,31.2448808 Z M66.3267074,21.1705361 L67.6403415,19.8545395 C67.7431167,20.7517562 67.7903698,21.6666928 67.7537487,22.6005308 L66.3267074,21.1705361 Z M64.6161479,19.4576141 L60.8914282,15.7258065 L64.4419024,12.1694258 C65.6397665,13.5941044 66.5186728,15.2249244 67.0644452,17.0045914 L64.6161479,19.4576141 Z M59.1808688,14.0128843 L55.4567398,10.2822581 L57.8359296,7.89775237 C59.6663936,8.42757686 61.3161148,9.284038 62.7360682,10.4529596 L59.1808688,14.0128843 Z M53.7473617,8.57051734 L52.476846,7.29941099 C52.7119297,7.28936961 52.9476042,7.25806452 53.1820975,7.25806452 C53.7892987,7.25806452 54.3811429,7.29527631 54.9629457,7.35257056 L53.7473617,8.57051734 Z M49.4083527,7.64731134 L52.0379835,10.2822581 L48.3120826,14.0140657 L43.8106414,9.50553644 C45.6316548,8.63489955 47.5099626,8.0093876 49.4083527,7.64731134 L49.4083527,7.64731134 Z M41.5932931,10.7093073 L46.6027045,15.7258065 L42.8779848,19.4564327 L37.3452463,13.9148344 C38.6795536,12.6897996 40.103051,11.615384 41.5932931,10.7093073 Z M35.6311429,15.623031 L41.1680159,21.1693548 L37.4432964,24.8999811 L32.4155746,19.8651714 C33.3192886,18.3749291 34.4066989,16.9585198 35.6311429,15.623031 Z M31.2230264,22.0961047 L35.7327369,26.6129032 L32.0080173,30.3435295 L29.3612572,27.6920442 C29.7239242,25.7865659 30.3594774,23.9094396 31.2230264,22.0961047 Z M30.2974579,32.0576329 L29.0771484,33.2797143 C28.9962277,32.4699156 28.9897303,31.631765 29.0216262,30.7800293 L30.2974579,32.0576329 Z M32.0068359,33.7693737 L35.7327369,37.5 L32.1858068,41.0528368 C31.0233824,39.6305208 30.1704653,37.9719396 29.6406408,36.1402942 L32.0068359,33.7693737 Z M37.4432964,39.2129221 L41.1680159,42.9435484 L38.7291693,45.3859391 C36.9158345,44.8354414 35.2838332,43.9630325 33.8815996,42.7787534 L37.4432964,39.2129221 Z M45.8513814,44.2099294 L44.587363,42.9435484 L48.313264,39.2129221 L50.8873724,41.7905746 C49.0876228,42.3062232 47.3912392,43.1225193 45.8513814,44.2099294 Z M53.7473617,41.2306263 L50.022642,37.5 L53.7473617,33.7693737 L59.3964608,39.4267421 C58.7213332,40.0416221 58.0066312,40.6381914 57.2369976,41.2111344 C56.6829558,41.1567934 56.1230075,41.1290323 55.5583338,41.1290323 C54.9481792,41.1290323 54.3445219,41.1662441 53.7473617,41.2306263 L53.7473617,41.2306263 Z M65.8039709,68.3284636 C63.0680208,71.070911 59.4289473,72.5806452 55.5595152,72.5806452 C55.5583338,72.5806452 55.5583338,72.5806452 55.5583338,72.5806452 C51.6883111,72.5806452 48.0498283,71.070911 45.3132876,68.3284636 C39.6618259,62.6687327 39.6618259,53.4591183 45.3132876,47.7993872 L45.3132876,47.798206 C48.0498283,45.0581212 51.6883111,43.5483871 55.5583338,43.5483871 C59.4277659,43.5483871 63.0680208,45.0581212 65.8051521,47.7993872 C71.4542512,53.4591183 71.4542512,62.669914 65.8039709,68.3284636 L65.8039709,68.3284636 Z" id="Shape" fill="#273238"></path>
                            <polygon id="Path" fill="#273238" points="14.845719 58.4171418 17.2609391 55.9983777 18.9738612 57.7089372 16.5580503 60.1277013"></polygon>
                            <polygon id="Path" fill="#273238" points="6.39215292 66.8842931 12.43168 60.835906 14.1446022 62.5464655 8.1050749 68.5948526"></polygon>
                        </g>
                    </g>
                </g>
            </g>
        </g>
    </g>
</svg>